<svg xmlns="http://www.w3.org/2000/svg" version="1.1" xmlns:xlink="http://www.w3.org/1999/xlink" xmlns:svgjs="http://svgjs.dev/svgjs" width="1500" height="223" viewBox="0 0 1500 223"><g transform="matrix(1,0,0,1,-0.9090909090908781,-0.2967049193671869)"><svg viewBox="0 0 396 59" data-background-color="#6432c9" preserveAspectRatio="xMidYMid meet" height="223" width="1500" xmlns="http://www.w3.org/2000/svg" xmlns:xlink="http://www.w3.org/1999/xlink"><g id="tight-bounds" transform="matrix(1,0,0,1,0.2400000000000091,0.0785004046756228)"><svg viewBox="0 0 395.52 58.842959634196944" height="58.842959634196944" width="395.52"><g><svg viewBox="0 0 482.5111498482571 71.78495174345406" height="58.842959634196944" width="395.52"><g transform="matrix(1,0,0,1,86.99114984825711,19.789400903493235)"><svg viewBox="0 0 395.52 32.20614993646759" height="32.20614993646759" width="395.52"><g id="textblocktransform"><svg viewBox="0 0 395.52 32.20614993646759" height="32.20614993646759" width="395.52" id="textblock"><g><svg viewBox="0 0 395.52 32.20614993646759" height="32.20614993646759" width="395.52"><g transform="matrix(1,0,0,1,0,0)"><svg width="395.52" viewBox="3.85 -38.15 467.11 38.449999999999996" height="32.20614993646759" data-palette-color="#e1cdff"><g class="wordmark-text-0" data-fill-palette-color="primary" id="text-0"><path d="M7.85 0L3.85 0 3.85-36.8 7.85-36.8 7.85-20.15 14.3-20.15 24.4-36.8 28.6-36.8 17.45-18.4 28.75 0 24.5 0 14.3-16.55 7.85-16.55 7.85 0ZM44.65 0.3L44.65 0.3Q41.75 0.3 39.57-0.3 37.4-0.9 35.95-2.4 34.5-3.9 33.8-6.58 33.1-9.25 33.1-13.4L33.1-13.4Q33.1-17.6 33.8-20.28 34.5-22.95 35.95-24.43 37.4-25.9 39.57-26.48 41.75-27.05 44.65-27.05L44.65-27.05Q47.55-27.05 49.72-26.45 51.9-25.85 53.35-24.38 54.8-22.9 55.52-20.23 56.25-17.55 56.25-13.4L56.25-13.4Q56.25-9.2 55.52-6.53 54.8-3.85 53.37-2.38 51.95-0.9 49.75-0.3 47.55 0.3 44.65 0.3ZM44.65-2.95L44.65-2.95Q46.5-2.95 47.92-3.3 49.35-3.65 50.3-4.7 51.25-5.75 51.75-7.85 52.25-9.95 52.25-13.4L52.25-13.4Q52.25-16.9 51.75-18.95 51.25-21 50.3-22.05 49.35-23.1 47.92-23.45 46.5-23.8 44.65-23.8L44.65-23.8Q42.75-23.8 41.35-23.45 39.95-23.1 39-22.05 38.05-21 37.55-18.95 37.05-16.9 37.05-13.4L37.05-13.4Q37.05-9.95 37.55-7.85 38.05-5.75 39-4.7 39.95-3.65 41.35-3.3 42.75-2.95 44.65-2.95ZM72.09 0.3L72.09 0.3Q71.09 0.3 69.64 0.25 68.19 0.2 66.62 0.1 65.05 0 63.77-0.13 62.49-0.25 61.8-0.4L61.8-0.4 61.8-2.8 72.75-2.8Q74.39-2.8 75.59-3.05 76.8-3.3 77.47-4.15 78.14-5 78.14-6.7L78.14-6.7 78.14-7.9Q78.14-9.65 77-10.63 75.84-11.6 73.3-11.6L73.3-11.6 69.55-11.6Q67.19-11.6 65.37-12.2 63.55-12.8 62.55-14.25 61.55-15.7 61.55-18.25L61.55-18.25 61.55-19.65Q61.55-22.15 62.52-23.75 63.49-25.35 65.57-26.15 67.64-26.95 70.94-26.95L70.94-26.95Q72.34-26.95 74.17-26.85 76-26.75 77.75-26.58 79.5-26.4 80.59-26.2L80.59-26.2 80.59-23.8 70.3-23.8Q67.75-23.8 66.37-22.95 65-22.1 65-19.65L65-19.65 65-18.55Q65-17 65.64-16.23 66.3-15.45 67.47-15.2 68.64-14.95 70.19-14.95L70.19-14.95 74-14.95Q77.64-14.95 79.64-13.25 81.64-11.55 81.64-8.35L81.64-8.35 81.64-6.5Q81.64-3.8 80.42-2.33 79.19-0.85 77.07-0.28 74.94 0.3 72.09 0.3ZM95.84 0.3L95.84 0.3Q91.99 0.3 89.92-1.7 87.84-3.7 87.84-7.9L87.84-7.9 87.84-26.7 91.79-26.7 91.79-8.9Q91.79-5.55 93.32-4.38 94.84-3.2 97.59-3.2L97.59-3.2Q99.94-3.2 101.89-3.88 103.84-4.55 105.89-5.75L105.89-5.75 105.89-26.7 109.84-26.7 109.84 0 106.74 0 105.89-2.95Q103.84-1.65 101.27-0.68 98.69 0.3 95.84 0.3Z" fill="#e1cdff" data-fill-palette-color="primary"></path><path d="M137.64 0.3L137.64 0.3Q136.54 0.3 135.01 0.23 133.49 0.15 131.89 0.03 130.29-0.1 128.86-0.25 127.44-0.4 126.49-0.6L126.49-0.6 126.49-3.65Q127.74-3.55 129.54-3.45 131.34-3.35 133.41-3.3 135.49-3.25 137.49-3.25L137.49-3.25Q139.74-3.25 141.54-3.7 143.34-4.15 144.41-5.35 145.49-6.55 145.49-8.8L145.49-8.8 145.49-11.3Q145.49-13.85 144.19-15.18 142.89-16.5 139.99-16.5L139.99-16.5 136.04-16.5Q131.49-16.5 128.91-18.5 126.34-20.5 126.34-25.4L126.34-25.4 126.34-27.5Q126.34-32.7 129.14-34.9 131.94-37.1 137.04-37.1L137.04-37.1Q138.64-37.1 140.64-36.93 142.64-36.75 144.51-36.52 146.39-36.3 147.64-36.05L147.64-36.05 147.64-33Q145.44-33.2 142.66-33.35 139.89-33.5 137.44-33.5L137.44-33.5Q135.19-33.5 133.54-32.98 131.89-32.45 131.01-31.13 130.14-29.8 130.14-27.35L130.14-27.35 130.14-25.65Q130.14-22.6 131.74-21.45 133.34-20.3 136.19-20.3L136.19-20.3 140.44-20.3Q143.49-20.3 145.44-19.2 147.39-18.1 148.34-16.18 149.29-14.25 149.29-11.75L149.29-11.75 149.29-8.9Q149.29-5.2 147.71-3.2 146.14-1.2 143.51-0.45 140.89 0.3 137.64 0.3ZM161.24 0.3L161.24 0.3Q158.29 0.3 156.39-1.45 154.49-3.2 154.49-6.4L154.49-6.4 154.49-8.3Q154.49-11.45 156.56-13.4 158.64-15.35 162.84-15.35L162.84-15.35 171.89-15.35 171.89-18.65Q171.89-20.3 171.31-21.48 170.74-22.65 169.26-23.3 167.79-23.95 164.99-23.95L164.99-23.95 156.69-23.95 156.69-26.3Q158.44-26.6 160.76-26.85 163.09-27.1 166.24-27.1L166.24-27.1Q169.49-27.15 171.64-26.3 173.79-25.45 174.81-23.63 175.84-21.8 175.84-18.85L175.84-18.85 175.84 0 172.79 0 172.04-3.05Q171.84-2.85 170.81-2.35 169.79-1.85 168.21-1.23 166.64-0.6 164.81-0.15 162.99 0.3 161.24 0.3ZM162.89-2.65L162.89-2.65Q163.79-2.6 164.94-2.85 166.09-3.1 167.29-3.43 168.49-3.75 169.51-4.1 170.54-4.45 171.18-4.7 171.84-4.95 171.89-4.95L171.89-4.95 171.89-13.35 163.74-13Q160.89-12.9 159.66-11.6 158.44-10.3 158.44-8.25L158.44-8.25 158.44-7.05Q158.44-5.45 159.11-4.48 159.79-3.5 160.81-3.1 161.84-2.7 162.89-2.65ZM193.68 0.05L190.28 0.05Q187.98 0.05 186.43-0.78 184.88-1.6 184.08-3.48 183.28-5.35 183.28-8.55L183.28-8.55 183.28-38.15 187.23-38.15 187.23-9.05Q187.23-6.65 187.68-5.43 188.13-4.2 188.98-3.73 189.83-3.25 190.98-3.1L190.98-3.1 193.68-2.8 193.68 0.05ZM210.48 0L206.83 0Q204.23 0 202.53-0.85 200.83-1.7 200.03-3.6 199.23-5.5 199.28-8.65L199.28-8.65 199.43-23.45 195.18-23.45 195.18-26 199.48-26.7 200.13-34.15 203.18-34.15 203.18-26.7 210.88-26.7 210.88-23.45 203.18-23.45 203.18-8.65Q203.18-6.9 203.56-5.85 203.93-4.8 204.56-4.25 205.18-3.7 205.88-3.48 206.58-3.25 207.23-3.2L207.23-3.2 210.48-2.9 210.48 0ZM226.53 0.3L226.53 0.3Q222.33 0.3 219.9-0.95 217.48-2.2 216.43-5.2 215.38-8.2 215.38-13.4L215.38-13.4Q215.38-18.7 216.45-21.68 217.53-24.65 219.98-25.85 222.43-27.05 226.58-27.05L226.58-27.05Q230.13-27.05 232.35-26.25 234.58-25.45 235.65-23.53 236.73-21.6 236.73-18.2L236.73-18.2Q236.73-15.85 235.8-14.43 234.88-13 233.15-12.38 231.43-11.75 229.08-11.75L229.08-11.75 219.33-11.75Q219.38-8.5 220.03-6.53 220.68-4.55 222.4-3.68 224.13-2.8 227.48-2.8L227.48-2.8 236.08-2.8 236.08-0.4Q233.78-0.1 231.58 0.1 229.38 0.3 226.53 0.3ZM219.28-14.35L219.28-14.35 228.78-14.35Q231.03-14.35 232.1-15.18 233.18-16 233.18-18.15L233.18-18.15Q233.18-20.45 232.5-21.73 231.83-23 230.4-23.53 228.98-24.05 226.58-24.05L226.58-24.05Q223.78-24.05 222.18-23.23 220.58-22.4 219.93-20.3 219.28-18.2 219.28-14.35ZM252.03 0.3L252.03 0.3Q248.73 0.3 246.6-1.13 244.48-2.55 243.45-5.53 242.43-8.5 242.43-13.15L242.43-13.15Q242.43-18.1 243.43-21.18 244.43-24.25 246.63-25.65 248.83-27.05 252.53-27.05L252.53-27.05Q254.78-27.05 256.93-26.55 259.08-26.05 260.73-25.45L260.73-25.45 260.73-38.15 264.68-38.15 264.68 0 261.48 0 260.73-2.7Q259.98-2.05 258.5-1.35 257.03-0.65 255.3-0.18 253.58 0.3 252.03 0.3ZM253.18-2.95L253.18-2.95Q255.48-2.95 257.35-3.68 259.23-4.4 260.73-5.2L260.73-5.2 260.73-22.65Q258.93-23.2 257.28-23.58 255.63-23.95 253.58-23.95L253.58-23.95Q251.03-23.95 249.43-23 247.83-22.05 247.1-19.73 246.38-17.4 246.38-13.3L246.38-13.3Q246.38-9.6 247.05-7.3 247.73-5 249.23-3.98 250.73-2.95 253.18-2.95Z" fill="#e1cdff" data-fill-palette-color="primary"></path><path d="M294.08 0.3L294.08 0.3Q290.78 0.3 288.33-0.45 285.88-1.2 284.28-3.18 282.68-5.15 281.9-8.85 281.13-12.55 281.13-18.5L281.13-18.5Q281.13-24.1 281.93-27.73 282.73-31.35 284.35-33.4 285.98-35.45 288.48-36.27 290.98-37.1 294.38-37.1L294.38-37.1Q295.93-37.1 297.83-36.9 299.73-36.7 301.58-36.43 303.43-36.15 304.93-35.75L304.93-35.75 304.93-32.8Q304.08-32.95 302.53-33.1 300.98-33.25 299-33.38 297.03-33.5 294.98-33.5L294.98-33.5Q292.33-33.5 290.43-32.9 288.53-32.3 287.35-30.68 286.18-29.05 285.63-26.1 285.08-23.15 285.08-18.45L285.08-18.45Q285.08-13.7 285.6-10.68 286.13-7.65 287.28-6.05 288.43-4.45 290.28-3.85 292.13-3.25 294.88-3.25L294.88-3.25Q298.63-3.25 301.03-3.45 303.43-3.65 304.93-3.9L304.93-3.9 304.93-0.9Q303.43-0.55 301.6-0.28 299.78 0 297.85 0.15 295.93 0.3 294.08 0.3ZM316.23 0.3L316.23 0.3Q313.27 0.3 311.38-1.45 309.48-3.2 309.48-6.4L309.48-6.4 309.48-8.3Q309.48-11.45 311.55-13.4 313.63-15.35 317.83-15.35L317.83-15.35 326.88-15.35 326.88-18.65Q326.88-20.3 326.3-21.48 325.73-22.65 324.25-23.3 322.77-23.95 319.98-23.95L319.98-23.95 311.68-23.95 311.68-26.3Q313.43-26.6 315.75-26.85 318.08-27.1 321.23-27.1L321.23-27.1Q324.48-27.15 326.63-26.3 328.77-25.45 329.8-23.63 330.83-21.8 330.83-18.85L330.83-18.85 330.83 0 327.77 0 327.02-3.05Q326.83-2.85 325.8-2.35 324.77-1.85 323.2-1.23 321.63-0.6 319.8-0.15 317.98 0.3 316.23 0.3ZM317.88-2.65L317.88-2.65Q318.77-2.6 319.93-2.85 321.08-3.1 322.27-3.43 323.48-3.75 324.5-4.1 325.52-4.45 326.18-4.7 326.83-4.95 326.88-4.95L326.88-4.95 326.88-13.35 318.73-13Q315.88-12.9 314.65-11.6 313.43-10.3 313.43-8.25L313.43-8.25 313.43-7.05Q313.43-5.45 314.1-4.48 314.77-3.5 315.8-3.1 316.83-2.7 317.88-2.65ZM342.22 0L338.27 0 338.27-26.7 341.27-26.7 342.22-22.05Q344.02-24.2 346.25-25.6 348.47-27 351.37-27L351.37-27Q352.07-27 352.7-26.95 353.32-26.9 353.87-26.75L353.87-26.75 353.87-22.7Q353.22-22.8 352.47-22.88 351.72-22.95 350.97-22.95L350.97-22.95Q349.12-22.95 347.67-22.5 346.22-22.05 344.92-21.15 343.62-20.25 342.22-18.95L342.22-18.95 342.22 0ZM364.07 0.3L364.07 0.3Q361.12 0.3 359.22-1.45 357.32-3.2 357.32-6.4L357.32-6.4 357.32-8.3Q357.32-11.45 359.4-13.4 361.47-15.35 365.67-15.35L365.67-15.35 374.72-15.35 374.72-18.65Q374.72-20.3 374.15-21.48 373.57-22.65 372.1-23.3 370.62-23.95 367.82-23.95L367.82-23.95 359.52-23.95 359.52-26.3Q361.27-26.6 363.6-26.85 365.92-27.1 369.07-27.1L369.07-27.1Q372.32-27.15 374.47-26.3 376.62-25.45 377.65-23.63 378.67-21.8 378.67-18.85L378.67-18.85 378.67 0 375.62 0 374.87-3.05Q374.67-2.85 373.65-2.35 372.62-1.85 371.05-1.23 369.47-0.6 367.65-0.15 365.82 0.3 364.07 0.3ZM365.72-2.65L365.72-2.65Q366.62-2.6 367.77-2.85 368.92-3.1 370.12-3.43 371.32-3.75 372.35-4.1 373.37-4.45 374.02-4.7 374.67-4.95 374.72-4.95L374.72-4.95 374.72-13.35 366.57-13Q363.72-12.9 362.5-11.6 361.27-10.3 361.27-8.25L361.27-8.25 361.27-7.05Q361.27-5.45 361.95-4.48 362.62-3.5 363.65-3.1 364.67-2.7 365.72-2.65ZM390.07 0L386.12 0 386.12-26.7 389.22-26.7 390.07-23.75Q392.07-25.15 394.54-26.15 397.02-27.15 400.07-27.15L400.07-27.15Q402.57-27.15 404.34-26.03 406.12-24.9 407.02-23.2L407.02-23.2Q408.27-24.1 410.04-25 411.82-25.9 413.84-26.53 415.87-27.15 417.77-27.15L417.77-27.15Q420.67-27.15 422.52-25.93 424.37-24.7 425.24-22.63 426.12-20.55 426.12-18L426.12-18 426.12 0 422.17 0 422.17-17.7Q422.17-19.4 421.49-20.73 420.82-22.05 419.57-22.8 418.32-23.55 416.52-23.55L416.52-23.55Q414.27-23.55 411.92-22.7 409.57-21.85 407.57-20.65L407.57-20.65Q407.82-19.9 407.94-19.18 408.07-18.45 408.07-17.65L408.07-17.65 408.07 0 404.12 0 404.12-17.7Q404.12-19.4 403.44-20.73 402.77-22.05 401.54-22.8 400.32-23.55 398.52-23.55L398.52-23.55Q396.87-23.55 395.44-23.23 394.02-22.9 392.74-22.33 391.47-21.75 390.07-20.95L390.07-20.95 390.07 0ZM443.72 0.3L443.72 0.3Q439.52 0.3 437.09-0.95 434.67-2.2 433.62-5.2 432.57-8.2 432.57-13.4L432.57-13.4Q432.57-18.7 433.64-21.68 434.72-24.65 437.17-25.85 439.62-27.05 443.77-27.05L443.77-27.05Q447.32-27.05 449.54-26.25 451.77-25.45 452.84-23.53 453.92-21.6 453.92-18.2L453.92-18.2Q453.92-15.85 452.99-14.43 452.07-13 450.34-12.38 448.62-11.75 446.27-11.75L446.27-11.75 436.52-11.75Q436.57-8.5 437.22-6.53 437.87-4.55 439.59-3.68 441.32-2.8 444.67-2.8L444.67-2.8 453.27-2.8 453.27-0.4Q450.97-0.1 448.77 0.1 446.57 0.3 443.72 0.3ZM436.47-14.35L436.47-14.35 445.97-14.35Q448.22-14.35 449.29-15.18 450.37-16 450.37-18.15L450.37-18.15Q450.37-20.45 449.69-21.73 449.02-23 447.59-23.53 446.17-24.05 443.77-24.05L443.77-24.05Q440.97-24.05 439.37-23.23 437.77-22.4 437.12-20.3 436.47-18.2 436.47-14.35ZM470.96 0.05L467.56 0.05Q465.26 0.05 463.71-0.78 462.16-1.6 461.36-3.48 460.56-5.35 460.56-8.55L460.56-8.55 460.56-38.15 464.51-38.15 464.51-9.05Q464.51-6.65 464.96-5.43 465.41-4.2 466.26-3.73 467.11-3.25 468.26-3.1L468.26-3.1 470.96-2.8 470.96 0.05Z" fill="#e1cdff" data-fill-palette-color="primary"></path></g></svg></g></svg></g></svg></g></svg></g><g><svg viewBox="0 0 71.78495174345406 71.78495174345406" height="71.78495174345406" width="71.78495174345406"><g><svg></svg></g><g id="icon-0"><svg viewBox="0 0 71.78495174345406 71.78495174345406" height="71.78495174345406" width="71.78495174345406"><g><path d="M0 35.892c0-19.823 16.07-35.892 35.892-35.892 19.823 0 35.892 16.07 35.893 35.892 0 19.823-16.07 35.892-35.893 35.893-19.823 0-35.892-16.07-35.892-35.893zM35.892 68.881c18.219 0 32.988-14.769 32.989-32.989 0-18.219-14.769-32.988-32.989-32.988-18.219 0-32.988 14.769-32.988 32.988 0 18.219 14.769 32.988 32.988 32.989z" data-fill-palette-color="accent" fill="#e1cdff" stroke="transparent"></path></g><g transform="matrix(1,0,0,1,21.58890709611302,21.208325905817517)"><svg viewBox="0 0 28.607137551228025 29.36829993181902" height="29.36829993181902" width="28.607137551228025"><g><svg xmlns:dc="http://purl.org/dc/elements/1.1/" xmlns:cc="http://creativecommons.org/ns#" xmlns:rdf="http://www.w3.org/1999/02/22-rdf-syntax-ns#" xmlns:svg="http://www.w3.org/2000/svg" xmlns="http://www.w3.org/2000/svg" version="1.1" viewBox="6.15625 4.998972592771795 87.67540536723843 90.00822248845869" xml:space="preserve" x="0" y="0" height="29.36829993181902" width="28.607137551228025" class="icon-cg-0" data-fill-palette-color="accent" id="cg-0"><path d="M56.063 5c-0.075 0.002-0.174 0.021-0.251 0.031L48 6.063c-1.212 0.159-2.065 1.256-1.906 2.468l0.687 5.157c-3.62 1.261-6.879 3.174-9.687 5.593L32.938 16.125c-0.97-0.745-2.349-0.564-3.094 0.406l-4.782 6.25c-0.745 0.97-0.564 2.349 0.407 3.094l4.125 3.156c-1.613 3.338-2.623 6.99-2.907 10.813l-5.156 0.687C20.318 40.691 19.466 41.787 19.625 43l1.031 7.844c0.159 1.213 1.256 2.066 2.469 1.906l5.156-0.688c0.242 0.694 0.523 1.363 0.813 2.032 0.267-0.007 0.513 0.001 0.781 0 0.145-0.004 0.292-0.031 0.438-0.032 3.901-0.013 7.646 1.243 11.187 2.813-3.065-3.156-5.164-7.303-5.781-12-1.525-11.601 6.649-22.225 18.25-23.75 11.601-1.525 22.225 6.618 23.75 18.219 1.323 10.064-4.633 19.425-13.813 22.718 1.416 0.258 2.815 0.564 4.188 1 2.344 0.443 4.18 2.145 5.156 4.25 1.091-0.718 2.143-1.528 3.125-2.375L80.5 68.125c0.97 0.745 2.349 0.564 3.094-0.406l4.812-6.25C89.151 60.499 88.97 59.12 88 58.375L83.844 55.188C85.456 51.85 86.467 48.197 86.75 44.375l5.156-0.688c1.212-0.159 2.066-1.256 1.907-2.468l-1.032-7.813C92.622 32.194 91.525 31.341 90.313 31.5l-5.157 0.688C83.895 28.568 81.982 25.276 79.563 22.469l3.156-4.125C83.463 17.374 83.282 15.995 82.313 15.25l-6.251-4.813C75.092 9.693 73.714 9.874 72.969 10.844l-3.188 4.125c-3.337-1.612-6.991-2.592-10.812-2.875L58.313 6.906C58.163 5.769 57.183 4.966 56.063 5zM29.938 56.75C21.878 56.666 13.918 59.955 6.156 62.5l0 18.938c1.914 0.551 8.232 0.823 10.188 1.218 5.681 1.149 10.425 5.014 15.719 7.344 4.557 2.005 9.09 4.908 14.156 5 7.733 0.141 15.303-1.818 22.906-3.031 6.143-0.981 11.675-6.408 15.813-10.844 7.099-7.61-1.754-13.715-8.282-8.25-3.155 2.641-6.816 4.859-11.094 5.313-6.798 0.721-14.288 1.058-20.187-2.782 2.684-1.325 6.433-0.268 9.531-0.25 4.34 0.026 8.772 1.265 13.031 0.407 4.365-0.88 4.702-8.238 0.125-9.75C61.474 63.636 54.441 64.03 47.844 62.281 42.884 60.966 38.591 57.73 33.406 57 32.251 56.837 31.089 56.762 29.938 56.75z" fill="#e1cdff" fill-opacity="1" fill-rule="evenodd" stroke="none" marker="none" visibility="visible" display="inline" overflow="visible" text-indent="0" text-transform="none" direction="ltr" block-progression="tb" baseline-shift="baseline" color="#e1cdff" enable-background="accumulate" data-fill-palette-color="accent"></path></svg></g></svg></g></svg></g></svg></g></svg></g><defs></defs></svg><rect width="395.52" height="58.842959634196944" fill="none" stroke="none" visibility="hidden"></rect></g></svg></g></svg>